<svg width="520" height="120" viewBox="0 0 520 120" xmlns="http://www.w3.org/2000/svg">
  <defs>
    <linearGradient id="logoGrad" x1="0%" y1="0%" x2="100%" y2="100%">
      <stop offset="0%" stop-color="#7ef7ff" />
      <stop offset="50%" stop-color="#35b7ff" />
      <stop offset="100%" stop-color="#0c6dff" />
    </linearGradient>
    <linearGradient id="panel" x1="0%" y1="0%" x2="100%" y2="100%">
      <stop offset="0%" stop-color="#07111f" />
      <stop offset="100%" stop-color="#0b1a2d" />
    </linearGradient>
    <filter id="shadow" x="-20%" y="-20%" width="140%" height="140%">
      <feDropShadow dx="0" dy="6" stdDeviation="8" flood-color="#000000" flood-opacity="0.35"/>
    </filter>
  </defs>

  <rect x="6" y="6" width="508" height="108" rx="28" fill="url(#panel)" stroke="url(#logoGrad)" stroke-width="2.5" filter="url(#shadow)"/>

  <path d="M42 82 L42 36" stroke="url(#logoGrad)" stroke-width="4" stroke-linecap="round"/>
  <path d="M42 60 L70 60" stroke="url(#logoGrad)" stroke-width="4" stroke-linecap="round"/>
  <path d="M82 36 L82 82" stroke="url(#logoGrad)" stroke-width="4" stroke-linecap="round"/>
  <path d="M82 60 L110 60" stroke="url(#logoGrad)" stroke-width="4" stroke-linecap="round"/>
  <path d="M132 36 L132 82" stroke="url(#logoGrad)" stroke-width="4" stroke-linecap="round"/>
  <path d="M132 60 L160 60" stroke="url(#logoGrad)" stroke-width="4" stroke-linecap="round"/>
  <path d="M182 36 C200 36, 214 48, 214 60 C214 72, 200 84, 182 84" stroke="url(#logoGrad)" stroke-width="4" fill="none" stroke-linecap="round"/>
  <path d="M232 36 L232 82" stroke="url(#logoGrad)" stroke-width="4" stroke-linecap="round"/>
  <path d="M232 60 L260 60" stroke="url(#logoGrad)" stroke-width="4" stroke-linecap="round"/>
  <path d="M282 36 L314 82" stroke="url(#logoGrad)" stroke-width="4" stroke-linecap="round"/>
  <path d="M314 82 L346 36" stroke="url(#logoGrad)" stroke-width="4" stroke-linecap="round"/>
  <circle cx="376" cy="60" r="22" fill="none" stroke="url(#logoGrad)" stroke-width="4"/>

  <text x="36" y="28" fill="#e8fbff" font-family="Segoe UI, Arial, sans-serif" font-size="17" font-weight="700" letter-spacing="2.8">RH4Z0R'S</text>
  <text x="208" y="28" fill="#7ef7ff" font-family="Segoe UI, Arial, sans-serif" font-size="17" font-weight="700" letter-spacing="2.8">EDGE</text>
  <text x="36" y="96" fill="#8ec9ea" font-family="Segoe UI, Arial, sans-serif" font-size="12" letter-spacing="1.4">ihre Lösung auf Messers Schneide...</text>
</svg>
